<?xml version="1.0" encoding="UTF-8"?>
<svg xmlns="http://www.w3.org/2000/svg" viewBox="0 0 1200 760" width="1200" height="760" role="img"
  aria-labelledby="title desc">
  <title id="title">The Accountability Gap in Autonomous Agents — Pulse</title>
  <desc id="desc">A two-pane causal diagram. Left pane shows what happens when an autonomous agent
    drifts mid-decision without protocol-level enforcement: capital is lost. Right pane shows the
    Pulse flow: sealed TEE reasoning, on-chain commit, Uniswap v4 hook gating, and ERC-8004
    reputation slashing.</desc>

  <defs>
    <!-- subtle background grid -->
    <pattern id="grid" x="0" y="0" width="24" height="24" patternUnits="userSpaceOnUse">
      <path d="M 24 0 L 0 0 0 24" fill="none" stroke="rgba(255,255,255,0.025)" stroke-width="1" />
    </pattern>
    <!-- arrowheads -->
    <marker id="arrow-red" viewBox="0 0 10 10" refX="9" refY="5" markerWidth="9" markerHeight="9"
      orient="auto-start-reverse">
      <path d="M 0 0 L 10 5 L 0 10 z" fill="#FF3838" />
    </marker>
    <marker id="arrow-green" viewBox="0 0 10 10" refX="9" refY="5" markerWidth="9" markerHeight="9"
      orient="auto-start-reverse">
      <path d="M 0 0 L 10 5 L 0 10 z" fill="#00FF6B" />
    </marker>
    <marker id="arrow-pale" viewBox="0 0 10 10" refX="9" refY="5" markerWidth="9" markerHeight="9"
      orient="auto-start-reverse">
      <path d="M 0 0 L 10 5 L 0 10 z" fill="#666" />
    </marker>
    <!-- pane backgrounds -->
    <linearGradient id="bgLeft" x1="0" y1="0" x2="0" y2="1">
      <stop offset="0" stop-color="#1a0606" />
      <stop offset="1" stop-color="#0d0303" />
    </linearGradient>
    <linearGradient id="bgRight" x1="0" y1="0" x2="0" y2="1">
      <stop offset="0" stop-color="#04140a" />
      <stop offset="1" stop-color="#021207" />
    </linearGradient>
    <!-- glow for verdict text -->
    <filter id="glow" x="-50%" y="-50%" width="200%" height="200%">
      <feGaussianBlur stdDeviation="1.5" result="b" />
      <feMerge>
        <feMergeNode in="b" />
        <feMergeNode in="SourceGraphic" />
      </feMerge>
    </filter>
  </defs>

  <style><![CDATA[
    .bg            { fill: #050505; }
    .grid-overlay  { fill: url(#grid); }
    .label-tag     { font: 600 11px/1 ui-monospace,"JetBrains Mono","SF Mono",Menlo,monospace;
                     letter-spacing: 0.18em; text-transform: uppercase; }
    .pane-title    { font: 700 22px/1 ui-monospace,"JetBrains Mono","SF Mono",Menlo,monospace;
                     letter-spacing: 0.04em; }
    .step-label    { font: 600 10px/1 ui-monospace,"JetBrains Mono","SF Mono",Menlo,monospace;
                     letter-spacing: 0.22em; text-transform: uppercase; }
    .step-text     { font: 500 14px/1.3 ui-monospace,"JetBrains Mono","SF Mono",Menlo,monospace; }
    .step-text-tight { font: 500 13px/1.3 ui-monospace,"JetBrains Mono","SF Mono",Menlo,monospace; }
    .arrow-text    { font: 500 11px/1.2 ui-monospace,"JetBrains Mono","SF Mono",Menlo,monospace; }
    .verdict       { font: 700 16px/1 ui-monospace,"JetBrains Mono","SF Mono",Menlo,monospace;
                     letter-spacing: 0.12em; text-transform: uppercase; }
    .caption       { font: italic 11px/1.4 ui-monospace,"JetBrains Mono","SF Mono",Menlo,monospace; }
    .title         { font: 700 30px/1 ui-monospace,"JetBrains Mono","SF Mono",Menlo,monospace;
                     letter-spacing: 0.02em; }
    .subtitle      { font: 500 13px/1 ui-monospace,"JetBrains Mono","SF Mono",Menlo,monospace;
                     letter-spacing: 0.22em; text-transform: uppercase; }
    .banner-text   { font: 700 16px/1.4 ui-monospace,"JetBrains Mono","SF Mono",Menlo,monospace;
                     letter-spacing: 0.02em; }
    .banner-tag    { font: 600 10px/1 ui-monospace,"JetBrains Mono","SF Mono",Menlo,monospace;
                     letter-spacing: 0.28em; text-transform: uppercase; }
    .red           { fill: #FF3838; }
    .red-soft      { fill: #ffadad; }
    .red-dim       { fill: #c66; }
    .green         { fill: #00FF6B; }
    .green-soft    { fill: #c8f7d7; }
    .green-dim     { fill: #6bd99a; }
    .ink           { fill: #f0e8d8; }
    .muted         { fill: #76705f; }
    .pale          { fill: #b9b3a1; }
  ]]></style>

  <!-- background -->
  <rect class="bg" width="1200" height="760" />
  <rect class="grid-overlay" width="1200" height="760" />

  <!-- ============== HEADER ============== -->
  <g transform="translate(600, 50)">
    <text class="subtitle muted" text-anchor="middle" y="0">PULSE PROTOCOL · WHY THIS PRIMITIVE</text>
    <text class="title ink" text-anchor="middle" y="36">The Accountability Gap in Autonomous Agents</text>
  </g>

  <!-- ============== LEFT PANE (without pulse) ============== -->
  <g transform="translate(40, 120)">
    <rect width="540" height="540" rx="12" fill="url(#bgLeft)" stroke="#FF3838" stroke-width="1.5"
      stroke-opacity="0.55" />

    <!-- pane label -->
    <rect x="20" y="-10" width="170" height="22" rx="2" fill="#050505" />
    <text class="label-tag red" x="30" y="6">▼ WITHOUT PULSE</text>

    <!-- pane title -->
    <text class="pane-title red-soft" x="32" y="48">An agent gets injected.</text>
    <text class="step-text-tight pale" x="32" y="74">Reasoning is the attack surface. Audits never see it.</text>
    <line x1="32" y1="92" x2="508" y2="92" stroke="#FF3838" stroke-opacity="0.25" stroke-width="1" />

    <!-- step 1 box -->
    <g transform="translate(32, 112)">
      <text class="step-label red-dim" y="0">01 · INTENT</text>
      <rect y="10" width="476" height="46" rx="6" fill="rgba(255,56,56,0.05)"
        stroke="rgba(255,56,56,0.4)" stroke-width="1" />
      <text class="step-text ink" x="14" y="38">Agent plans stop-loss at $1,500</text>
    </g>

    <!-- arrow 1 -->
    <g transform="translate(32, 178)">
      <line x1="20" y1="0" x2="20" y2="34" stroke="#FF3838" stroke-width="2"
        marker-end="url(#arrow-red)" />
      <text class="arrow-text red" x="44" y="22">prompt injection mid-flight</text>
    </g>

    <!-- step 2 box -->
    <g transform="translate(32, 222)">
      <text class="step-label red-dim" y="0">02 · DRIFT</text>
      <rect y="10" width="476" height="46" rx="6" fill="rgba(255,56,56,0.05)"
        stroke="rgba(255,56,56,0.4)" stroke-width="1" />
      <text class="step-text ink" x="14" y="38">Agent rationalises → buys 10x leverage long</text>
    </g>

    <!-- arrow 2 (thick) -->
    <g transform="translate(32, 288)">
      <line x1="20" y1="0" x2="20" y2="40" stroke="#FF3838" stroke-width="3"
        marker-end="url(#arrow-red)" />
      <text class="arrow-text red" x="44" y="26">contract executes exactly what it&#x27;s told</text>
    </g>

    <!-- step 3 verdict -->
    <g transform="translate(32, 338)">
      <rect y="0" width="476" height="64" rx="6" fill="rgba(255,56,56,0.12)"
        stroke="#FF3838" stroke-width="2" />
      <text class="verdict red" x="20" y="28" filter="url(#glow)">CAPITAL LOST. NO RECOURSE.</text>
      <text class="step-text-tight pale" x="20" y="52">Liquidated in 3 minutes. The audit was clean.</text>
    </g>

    <!-- caption -->
    <g transform="translate(32, 432)">
      <text class="caption muted" y="0">no cryptographic binding · no slashing · no protocol enforcement</text>
      <text class="caption muted" y="18">↳ this is the agent economy in 2026, with no accountability layer</text>
    </g>

    <!-- failure case study -->
    <g transform="translate(32, 480)">
      <rect width="476" height="40" rx="4" fill="rgba(255,56,56,0.06)"
        stroke="rgba(255,56,56,0.25)" stroke-width="1" stroke-dasharray="4 4" />
      <text class="step-label red-dim" x="14" y="16">PRECEDENT</text>
      <text class="caption pale" x="14" y="32">KelpDAO + Aave, April 2026: $292M lost — code was fine, off-chain
        decision was the gap</text>
    </g>
  </g>

  <!-- ============== RIGHT PANE (with pulse) ============== -->
  <g transform="translate(620, 120)">
    <rect width="540" height="540" rx="12" fill="url(#bgRight)" stroke="#00FF6B" stroke-width="1.5"
      stroke-opacity="0.55" />

    <!-- pane label -->
    <rect x="20" y="-10" width="170" height="22" rx="2" fill="#050505" />
    <text class="label-tag green" x="30" y="6">▲ WITH PULSE</text>

    <!-- pane title -->
    <text class="pane-title green-soft" x="32" y="48">Drift becomes physically impossible.</text>
    <text class="step-text-tight pale" x="32" y="74">Reasoning is committed before action. Mismatch reverts.</text>
    <line x1="32" y1="92" x2="508" y2="92" stroke="#00FF6B" stroke-opacity="0.25" stroke-width="1" />

    <!-- step 1 box -->
    <g transform="translate(32, 112)">
      <text class="step-label green-dim" y="0">01 · SEALED REASONING</text>
      <rect y="10" width="476" height="46" rx="6" fill="rgba(0,255,107,0.05)"
        stroke="rgba(0,255,107,0.4)" stroke-width="1" />
      <text class="step-text ink" x="14" y="32">0G Compute TEE → reasoning text +</text>
      <text class="step-text-tight pale" x="14" y="48">EIP-191 signature over (intent, reasoningCID)</text>
    </g>

    <!-- arrow 1 -->
    <g transform="translate(32, 178)">
      <line x1="20" y1="0" x2="20" y2="34" stroke="#00FF6B" stroke-width="2"
        marker-end="url(#arrow-green)" />
      <text class="arrow-text green" x="44" y="22">commit BEFORE acting</text>
    </g>

    <!-- step 2 box -->
    <g transform="translate(32, 222)">
      <text class="step-label green-dim" y="0">02 · ON-CHAIN COMMIT</text>
      <rect y="10" width="476" height="46" rx="6" fill="rgba(0,255,107,0.05)"
        stroke="rgba(0,255,107,0.4)" stroke-width="1" />
      <text class="step-text ink" x="14" y="32">Pulse.commit(intentHash, reasoningCID,</text>
      <text class="step-text-tight pale" x="14" y="48">agentId=pulseagent.eth · ERC-8004 #3906)</text>
    </g>

    <!-- arrow 2 -->
    <g transform="translate(32, 288)">
      <line x1="20" y1="0" x2="20" y2="34" stroke="#00FF6B" stroke-width="2"
        marker-end="url(#arrow-green)" />
      <text class="arrow-text green" x="44" y="22">enforced atomically in beforeSwap</text>
    </g>

    <!-- step 3 box - hook -->
    <g transform="translate(32, 332)">
      <text class="step-label green-dim" y="0">03 · UNISWAP V4 HOOK GATES</text>
      <rect y="10" width="476" height="46" rx="6" fill="rgba(0,255,107,0.05)"
        stroke="rgba(0,255,107,0.4)" stroke-width="1" />
      <text class="step-text ink" x="14" y="38">PulseGatedHook.beforeSwap → hash-verifies intent</text>
    </g>

    <!-- two outcome arrows -->
    <g transform="translate(32, 396)">
      <!-- bad path -->
      <line x1="20" y1="0" x2="20" y2="22" stroke="#FF3838" stroke-width="2"
        marker-end="url(#arrow-red)" />
      <text class="arrow-text red" x="44" y="14">BAD INTENT</text>
      <text class="arrow-text pale" x="158" y="14">→ revert before any state change · -1000 rep</text>
      <!-- good path -->
      <line x1="20" y1="32" x2="20" y2="54" stroke="#00FF6B" stroke-width="2"
        marker-end="url(#arrow-green)" />
      <text class="arrow-text green" x="44" y="46">KEPT INTENT</text>
      <text class="arrow-text pale" x="158" y="46">→ swap proceeds · +100 ERC-8004 reputation</text>
    </g>

    <!-- caption -->
    <g transform="translate(32, 480)">
      <rect width="476" height="40" rx="4" fill="rgba(0,255,107,0.06)"
        stroke="rgba(0,255,107,0.25)" stroke-width="1" stroke-dasharray="4 4" />
      <text class="step-label green-dim" x="14" y="16">VERIFIED LIVE</text>
      <text class="caption pale" x="14" y="32">Eth Sepolia · 56/56 forge tests · agent #3906 borrowing through
        the gate today</text>
    </g>
  </g>

  <!-- ============== BOTTOM BANNER ============== -->
  <g transform="translate(40, 690)">
    <rect width="1120" height="50" rx="6" fill="#0a0a0a" stroke="#f0e8d8" stroke-opacity="0.18"
      stroke-width="1" />
    <text class="banner-tag muted" x="22" y="20">PULSE</text>
    <text class="banner-text ink" x="22" y="38">First primitive that makes agent decisions
      non-repudiable at both the contract layer
      <tspan fill="#FF3838" font-weight="700">AND</tspan> the AMM layer.</text>
  </g>



  <!-- ============== INLINE OFFICIAL LOGOS (real brand assets) ============== -->
<g transform="translate(965,33) scale(0.0251)" data-logo="ethereum"><g id="Layer_x0020_1">
  <metadata id="CorelCorpID_0Corel-Layer"/>
  <g id="_1421394342400">
   <g>
    <polygon fill="#f0e8d8" fill-rule="nonzero" points="392.07,0 383.5,29.11 383.5,873.74 392.07,882.29 784.13,650.54 "/>
    <polygon fill="#f0e8d8" fill-rule="nonzero" points="392.07,0 -0,650.54 392.07,882.29 392.07,472.33 "/>
    <polygon fill="#f0e8d8" fill-rule="nonzero" points="392.07,956.52 387.24,962.41 387.24,1263.28 392.07,1277.38 784.37,724.89 "/>
    <polygon fill="#f0e8d8" fill-rule="nonzero" points="392.07,1277.38 392.07,956.52 -0,724.89 "/>
    <polygon fill="#f0e8d8" fill-rule="nonzero" points="392.07,882.29 784.13,650.54 392.07,472.33 "/>
    <polygon fill="#f0e8d8" fill-rule="nonzero" points="0,650.54 392.07,882.29 392.07,472.33 "/>
   </g>
  </g>
 </g></g>
<g transform="translate(905,212) scale(0.1199)" data-logo="0g"><path fill-rule="evenodd" clip-rule="evenodd" d="M551 140.176C547.524 210.803 489.168 267 417.687 267C343.972 267 284.212 207.229 284.212 133.499C284.212 59.769 343.972 0 417.687 0C486.9 0 543.808 52.6889 550.506 120.151H489.889C483.613 85.9722 453.674 60.0757 417.689 60.0757C377.144 60.0757 344.276 92.9486 344.276 133.499C344.276 174.052 377.144 206.925 417.689 206.925C448.816 206.925 475.416 187.549 486.095 160.201H384.32V140.176H551ZM43.9296 232.504C96.3218 279.985 177.314 278.45 227.858 227.899C279.983 175.763 279.983 91.2372 227.858 39.1014C175.732 -13.0328 91.22 -13.0328 39.0943 39.1014C-9.84622 88.0512 -12.8367 165.554 30.1224 217.994L72.9838 175.125C53.2597 146.519 56.1206 107.032 81.5664 81.5821C110.235 52.9077 156.717 52.9077 185.387 81.5821C214.055 110.257 214.055 156.746 185.387 185.421C163.377 207.435 130.868 212.548 103.981 200.76L175.948 128.78L161.791 114.622L86.4966 189.928L43.9296 232.504Z" fill="#00FF6B"/></g>
<g transform="translate(1070,320) scale(1.3333)" data-logo="ens"><title>ENS</title><path d="M11.725.223 5.107 11.13a.146.146 0 0 1-.237.018c-.583-.692-2.753-3.64-.067-6.327 2.45-2.452 5.572-4.2 6.73-4.804.13-.068.269.08.192.206m-.366 23.747c.132.093.295-.064.206-.2-1.478-2.251-6.392-9.744-7.07-10.869-.67-1.11-1.987-2.953-2.097-4.53-.011-.158-.228-.19-.283-.042a10 10 0 0 0-.27.85c-1.105 4.11.5 8.472 3.985 10.916zm.909-.193 6.618-10.907a.146.146 0 0 1 .237-.018c.582.692 2.753 3.64.067 6.327-2.45 2.452-5.572 4.2-6.73 4.804-.13.068-.269-.08-.192-.206M12.641.028c-.132-.093-.295.065-.206.2 1.478 2.252 6.392 9.745 7.07 10.87.67 1.109 1.987 2.952 2.097 4.53.011.157.228.19.283.041.088-.239.182-.524.27-.85 1.105-4.11-.5-8.472-3.985-10.915z"/></g>
<g transform="translate(1070,430) scale(0.0740)" data-logo="uniswap"><style type="text/css">
	.st0{fill:#F50DB4;}
	.st1{fill-rule:evenodd;clip-rule:evenodd;fill:#F50DB4;}
</style>
<path class="st0" d="M325.1,65.4c0.6-10.2,2-17,4.8-23.1c1.1-2.4,2.1-4.4,2.3-4.4s-0.3,1.8-1.1,4c-2,6-2.4,14.2-1,23.7
	c1.8,12.1,2.8,13.8,15.6,26.9c6,6.1,13,13.8,15.5,17.1l4.6,6l-4.6-4.3c-5.6-5.3-18.6-15.5-21.4-17c-1.9-1-2.2-1-3.4,0.2
	c-1.1,1.1-1.3,2.7-1.5,10.4c-0.2,12-1.9,19.7-5.8,27.3c-2.1,4.2-2.5,3.3-0.5-1.4c1.4-3.5,1.6-5,1.6-16.6c0-23.3-2.8-28.9-19.1-38.5
	c-4.1-2.4-10.9-5.9-15.1-7.8c-4.2-1.9-7.5-3.5-7.4-3.6c0.5-0.5,16.3,4.2,22.7,6.6c9.5,3.6,11.1,4.1,12.2,3.7
	C324.4,74.2,324.8,72,325.1,65.4z"/>
<path class="st0" d="M124.4,31.5c-5.6-0.9-5.9-1-3.2-1.4c5.1-0.8,17.1,0.3,25.4,2.2c19.3,4.6,36.9,16.3,55.6,37l5,5.5l7.1-1.1
	c30-4.8,60.6-1,86.1,10.8c7,3.2,18.1,9.7,19.5,11.3c0.4,0.5,1.3,3.9,1.8,7.5c1.9,12.5,0.9,22.1-2.9,29.3c-2.1,3.9-2.2,5.1-0.8,8.5
	c1.1,2.7,4.3,4.6,7.4,4.6c6.3,0,13.2-10.2,16.3-24.4l1.3-5.6l2.5,2.8c13.7,15.4,24.4,36.4,26.2,51.3l0.5,3.9l-2.3-3.5
	c-4-6.1-7.9-10.2-13-13.6c-9.2-6-18.9-8.1-44.5-9.4c-23.2-1.2-36.3-3.2-49.3-7.4c-22.1-7.2-33.3-16.7-59.6-51.1
	c-11.7-15.2-18.9-23.7-26.1-30.5C161,42.8,145,34.7,124.4,31.5z"/>
<path class="st0" d="M135.4,105.3c-11.4-15.7-18.5-39.7-17-57.6l0.5-5.6l2.6,0.5c4.9,0.9,13.3,4,17.3,6.4
	c10.8,6.5,15.5,15.2,20.3,37.3c1.4,6.5,3.2,13.8,4.1,16.3c1.4,4,6.5,13.3,10.7,19.4c3,4.4,1,6.4-5.6,5.8
	C158,126.9,144.2,117.5,135.4,105.3z"/>
<path class="st0" d="M311.3,221.9c-53.5-21.4-72.3-40-72.3-71.4c0-4.6,0.2-8.4,0.4-8.4c0.2,0,2.3,1.5,4.6,3.4
	c10.8,8.6,23,12.3,56.6,17.2c19.8,2.9,30.9,5.2,41.2,8.6c32.6,10.8,52.8,32.6,57.6,62.4c1.4,8.6,0.6,24.9-1.7,33.4
	c-1.8,6.7-7.3,18.9-8.7,19.4c-0.4,0.1-0.8-1.4-0.9-3.5c-0.6-11.2-6.2-22-15.8-30.2C361.4,243.6,346.9,236.2,311.3,221.9z"/>
<path class="st0" d="M273.7,230.8c-0.7-4-1.8-9-2.6-11.3l-1.4-4l2.5,2.8c3.5,3.9,6.3,8.9,8.6,15.6c1.8,5.1,2,6.6,2,14.9
	c0,8.1-0.2,9.8-1.9,14.4c-2.6,7.2-5.8,12.4-11.3,17.9c-9.8,9.9-22.3,15.4-40.4,17.6c-3.1,0.4-12.3,1.1-20.4,1.5
	c-20.3,1.1-33.7,3.2-45.8,7.4c-1.7,0.6-3.3,1-3.4,0.8c-0.5-0.5,7.7-5.3,14.5-8.6c9.5-4.6,19-7.1,40.3-10.6
	c10.5-1.7,21.4-3.9,24.1-4.7C264.6,276.7,278,256.2,273.7,230.8z"/>
<path class="st0" d="M298.2,274.1c-7.1-15.2-8.7-29.9-4.8-43.5c0.4-1.5,1.1-2.7,1.5-2.7c0.4,0,2.1,0.9,3.7,2
	c3.3,2.2,9.8,5.9,27.3,15.4c21.8,11.8,34.3,21,42.7,31.5c7.4,9.2,12,19.6,14.2,32.3c1.3,7.2,0.5,24.6-1.3,31.8
	c-5.9,22.9-19.5,40.9-39,51.4c-2.9,1.5-5.4,2.8-5.7,2.8c-0.3,0,0.8-2.6,2.3-5.8c6.5-13.6,7.3-26.8,2.3-41.6c-3-9-9.2-20-21.7-38.6
	C305.4,287.5,301.8,281.7,298.2,274.1z"/>
<path class="st0" d="M97.4,356.1c19.8-16.7,44.5-28.5,67-32.1c9.7-1.6,25.8-0.9,34.8,1.3c14.4,3.7,27.3,11.9,33.9,21.6
	c6.5,9.5,9.3,17.9,12.3,36.4c1.2,7.3,2.4,14.6,2.8,16.3c2.2,9.6,6.5,17.3,11.8,21.1c8.4,6.1,22.9,6.5,37.1,1
	c2.4-0.9,4.5-1.6,4.7-1.4c0.5,0.5-6.7,5.3-11.7,7.8c-6.8,3.4-12.2,4.7-19.4,4.7c-13,0-23.9-6.6-32.9-20c-1.8-2.6-5.8-10.6-8.9-17.6
	c-9.5-21.6-14.2-28.2-25.3-35.4c-9.6-6.3-22.1-7.4-31.4-2.8c-12.3,6-15.7,21.6-6.9,31.5c3.5,3.9,10,7.3,15.3,8
	c10,1.2,18.5-6.3,18.5-16.3c0-6.5-2.5-10.2-8.8-13.1c-8.6-3.9-17.9,0.7-17.9,8.7c0,3.4,1.5,5.6,5,7.2c2.2,1,2.3,1.1,0.5,0.7
	c-7.9-1.6-9.8-11.1-3.4-17.4c7.7-7.6,23.5-4.2,28.9,6.1c2.3,4.3,2.5,13,0.6,18.2c-4.5,11.7-17.4,17.8-30.6,14.5
	c-9-2.3-12.6-4.7-23.4-15.8c-18.8-19.3-26.1-23-53.2-27.2l-5.2-0.8L97.4,356.1z"/>
<path class="st1" d="M9.2,11.5c62.8,75.7,106,107,110.8,113.6c4,5.5,2.5,10.4-4.3,14.2c-3.8,2.1-11.5,4.3-15.4,4.3
	c-4.4,0-5.9-1.7-5.9-1.7c-2.6-2.4-4-2-17.1-25.1C59.1,88.8,43.9,65.5,43.5,65.1c-1-0.9-0.9-0.9,32,57.7c5.3,12.2,1.1,16.7,1.1,18.4
	c0,3.5-1,5.4-5.4,10.3c-7.3,8.1-10.6,17.2-12.9,36.1c-2.6,21.1-10.1,36.1-30.7,61.6c-12.1,15-14,17.7-17.1,23.7
	c-3.8,7.6-4.9,11.9-5.3,21.4c-0.5,10.1,0.4,16.7,3.5,26.4c2.7,8.5,5.6,14.1,12.9,25.3c6.3,9.7,9.9,16.9,9.9,19.7
	c0,2.2,0.4,2.2,10.2,0.1c23.3-5.2,42.2-14.4,52.8-25.7c6.6-7,8.1-10.8,8.2-20.4c0-6.3-0.2-7.6-1.9-11.2c-2.8-5.9-7.8-10.7-18.9-18.3
	c-14.5-9.9-20.8-17.9-22.5-28.8c-1.4-9,0.2-15.3,8.3-32.1c8.3-17.4,10.4-24.8,11.8-42.3c0.9-11.3,2.2-15.8,5.4-19.3
	c3.4-3.7,6.5-5,14.9-6.1c13.7-1.9,22.5-5.4,29.7-12c6.2-5.7,8.9-11.2,9.3-19.5l0.3-6.3l-3.5-4C122.8,105.1,0.8,0,0,0
	C-0.2,0,4,5.2,9.2,11.5z M38.5,305.9c2.9-5,1.3-11.5-3.4-14.7c-4.5-3-11.5-1.6-11.5,2.3c0,1.2,0.7,2.1,2.1,2.8
	c2.5,1.3,2.7,2.7,0.7,5.7c-2,3-1.8,5.6,0.5,7.4C30.5,312.3,35.7,310.7,38.5,305.9z"/>
<path class="st1" d="M147.6,164.9c-6.5,2-12.7,8.8-14.7,15.9c-1.2,4.4-0.5,12,1.3,14.3c2.9,3.8,5.6,4.8,13.1,4.8
	c14.7-0.1,27.5-6.4,29-14.2c1.2-6.4-4.4-15.3-12.1-19.2C160.2,164.4,151.7,163.6,147.6,164.9z M164.8,178.3c2.3-3.2,1.3-6.7-2.6-9
	c-7.3-4.5-18.4-0.8-18.4,6.1c0,3.4,5.8,7.2,11.1,7.2C158.4,182.6,163.2,180.5,164.8,178.3z"/></g>
<g transform="translate(472,596) scale(0.1470)" data-logo="aave"><g>
	<path fill="#ffadad" d="M190.5,95.3C190.5,42.6,147.9,0,95.3,0S0,42.6,0,95.3s42.6,95.3,95.3,95.3S190.5,147.9,190.5,95.3
		L190.5,95.3z"/>
	<path fill="#ffadad" d="M77.5,99.9c8.2-1.3,13.7-9,12.4-17.2c-1.3-8.2-9-13.7-17.2-12.4c-8.2,1.3-13.7,9-12.4,17.2
		C61.7,95.7,69.4,101.2,77.5,99.9L77.5,99.9z M116.7,99.9c8.2-1.3,13.7-9,12.4-17.2c-1.3-8.2-9-13.7-17.2-12.4
		c-8.2,1.3-13.7,9-12.4,17.2C100.8,95.7,108.5,101.2,116.7,99.9L116.7,99.9z"/>
	<path fill="#ffadad" d="M94.7,23.3C54,23.3,21,56.9,21,98.3h18.8c0-31.1,24.4-56.2,54.8-56.2c30.5,0,54.8,25.2,54.8,56.2h18.8
		C168.4,56.9,135.4,23.3,94.7,23.3L94.7,23.3L94.7,23.3z"/>
</g></g>
</svg>
